<svg width="71" height="71" viewBox="0 0 71 71" fill="none" xmlns="http://www.w3.org/2000/svg">
<path d="M18.4829 57.5H19.8779V68H18.4829V57.5ZM31.9554 57.5V68H30.5754V59.795L27.6504 66.23H26.4504L23.5254 59.795V68H22.1304V57.5H23.5254H23.7954L27.0504 64.64L30.2904 57.5H31.9554ZM38.5957 57.5C40.0257 57.5 41.2107 58.01 42.1507 59.03C43.1007 60.04 43.5757 61.28 43.5757 62.75C43.5757 64.22 43.1007 65.465 42.1507 66.485C41.2107 67.495 40.0257 68 38.5957 68H34.7257H34.2007V57.5H35.5957H38.5957ZM38.5957 66.68C39.6657 66.68 40.5407 66.305 41.2207 65.555C41.9007 64.805 42.2407 63.87 42.2407 62.75C42.2407 61.63 41.9007 60.695 41.2207 59.945C40.5407 59.195 39.6657 58.82 38.5957 58.82H35.5957V66.68H38.5957ZM49.2799 60.305C50.3299 60.305 51.2249 60.69 51.9649 61.46C52.7049 62.22 53.0749 63.15 53.0749 64.25C53.0749 65.35 52.7049 66.285 51.9649 67.055C51.2249 67.815 50.3299 68.195 49.2799 68.195C48.0399 68.195 47.0949 67.705 46.4449 66.725V68H45.1399V57.5H46.4449V61.775C47.0949 60.795 48.0399 60.305 49.2799 60.305ZM49.1149 66.935C49.8649 66.935 50.4949 66.68 51.0049 66.17C51.5149 65.65 51.7699 65.01 51.7699 64.25C51.7699 63.49 51.5149 62.855 51.0049 62.345C50.4949 61.825 49.8649 61.565 49.1149 61.565C48.3549 61.565 47.7199 61.825 47.2099 62.345C46.6999 62.855 46.4449 63.49 46.4449 64.25C46.4449 65.01 46.6999 65.65 47.2099 66.17C47.7199 66.68 48.3549 66.935 49.1149 66.935Z" fill="white"/>
<circle cx="36" cy="26" r="26" fill="#89CB36" fill-opacity="0.3"/>
<path d="M27.3331 24.864C28.2778 24.8813 29.0448 25.1847 29.6341 25.774C30.2321 26.3547 30.5311 27.1 30.5311 28.01C30.5311 28.9373 30.2234 29.7 29.6081 30.298C28.9928 30.8873 28.1998 31.182 27.2291 31.182C26.2584 31.182 25.4654 30.8873 24.8501 30.298C24.2434 29.7087 23.9401 28.946 23.9401 28.01C23.9401 27.2993 24.1178 26.6883 24.4731 26.177L27.3071 21.9H29.3611L27.3331 24.864ZM26.1501 29.089C26.4361 29.3577 26.7958 29.492 27.2291 29.492C27.6624 29.492 28.0221 29.3577 28.3081 29.089C28.6028 28.8203 28.7501 28.4607 28.7501 28.01C28.7501 27.568 28.6028 27.2127 28.3081 26.944C28.0221 26.6753 27.6624 26.541 27.2291 26.541C26.7958 26.541 26.4361 26.6753 26.1501 26.944C25.8641 27.204 25.7211 27.5593 25.7211 28.01C25.7211 28.4607 25.8641 28.8203 26.1501 29.089ZM31.3918 31V29.141H33.2378V31H31.3918ZM34.2203 21.9H40.0963V23.421L37.0153 31H35.1173L38.1203 23.616H34.2203V21.9ZM44.2654 31.182C43.1301 31.182 42.2374 30.753 41.5874 29.895C40.9461 29.0283 40.6254 27.88 40.6254 26.45C40.6254 25.02 40.9461 23.876 41.5874 23.018C42.2374 22.1513 43.1301 21.718 44.2654 21.718C45.4094 21.718 46.3021 22.1513 46.9434 23.018C47.5847 23.876 47.9054 25.02 47.9054 26.45C47.9054 27.88 47.5847 29.0283 46.9434 29.895C46.3021 30.753 45.4094 31.182 44.2654 31.182ZM42.8874 28.673C43.1994 29.1757 43.6587 29.427 44.2654 29.427C44.8721 29.427 45.3314 29.1713 45.6434 28.66C45.9641 28.1487 46.1244 27.412 46.1244 26.45C46.1244 25.4793 45.9641 24.7383 45.6434 24.227C45.3314 23.7157 44.8721 23.46 44.2654 23.46C43.6587 23.46 43.1994 23.7157 42.8874 24.227C42.5754 24.7383 42.4194 25.4793 42.4194 26.45C42.4194 27.4207 42.5754 28.1617 42.8874 28.673Z" fill="white"/>
<path d="M36 0C39.7369 4.45619e-08 43.4299 0.805527 46.8273 2.3617C50.2248 3.91787 53.2468 6.18811 55.6876 9.01774C58.1284 11.8474 59.9306 15.1699 60.9713 18.7589C62.0121 22.348 62.2669 26.1192 61.7185 29.8156C61.1701 33.512 59.8313 37.0468 57.7934 40.1791C55.7555 43.3114 53.0663 45.9676 49.9091 47.9667C46.752 49.9658 43.2009 51.2609 39.498 51.7636C35.7951 52.2664 32.0273 51.965 28.4514 50.8801L30.7481 43.3101C33.2361 44.0649 35.8574 44.2746 38.4337 43.9248C41.01 43.575 43.4806 42.674 45.6771 41.2831C47.8737 39.8922 49.7447 38.0442 51.1625 35.865C52.5804 33.6857 53.5118 31.2264 53.8934 28.6547C54.2749 26.0829 54.0976 23.4591 53.3735 20.9621C52.6495 18.4651 51.3956 16.1535 49.6975 14.1848C47.9993 12.2161 45.8967 10.6366 43.533 9.5539C41.1693 8.47121 38.5999 7.91077 36 7.91077V0Z" fill="#89CB36"/>
</svg>
