<svg width="71" height="71" viewBox="0 0 71 71" fill="none" xmlns="http://www.w3.org/2000/svg">
<path d="M15.7834 68H14.0734L9.54344 62.96V68H8.14844V57.5H9.54344V62.255L13.9234 57.5H15.6334L10.9984 62.615L15.7834 68ZM16.8904 59.15V57.5H18.1954V59.15H16.8904ZM16.8904 68V60.5H18.1954V68H16.8904ZM23.7113 60.305C24.4313 60.305 25.0313 60.56 25.5113 61.07C25.9913 61.58 26.2313 62.265 26.2313 63.125V68H24.9263V63.185C24.9263 62.665 24.7813 62.265 24.4913 61.985C24.2113 61.695 23.8363 61.55 23.3663 61.55C22.8463 61.55 22.4013 61.73 22.0313 62.09C21.6713 62.44 21.4913 62.985 21.4913 63.725V68H20.1863V60.5H21.4913V61.43C21.9813 60.68 22.7213 60.305 23.7113 60.305ZM34.3679 67.055C33.5979 67.815 32.6629 68.195 31.5629 68.195C30.4629 68.195 29.5279 67.815 28.7579 67.055C27.9979 66.295 27.6179 65.36 27.6179 64.25C27.6179 63.14 27.9979 62.205 28.7579 61.445C29.5279 60.685 30.4629 60.305 31.5629 60.305C32.6629 60.305 33.5979 60.685 34.3679 61.445C35.1379 62.205 35.5229 63.14 35.5229 64.25C35.5229 65.36 35.1379 66.295 34.3679 67.055ZM31.5629 66.92C32.3129 66.92 32.9429 66.665 33.4529 66.155C33.9629 65.645 34.2179 65.01 34.2179 64.25C34.2179 63.49 33.9629 62.855 33.4529 62.345C32.9429 61.835 32.3129 61.58 31.5629 61.58C30.8229 61.58 30.1979 61.835 29.6879 62.345C29.1779 62.855 28.9229 63.49 28.9229 64.25C28.9229 65.01 29.1779 65.645 29.6879 66.155C30.1979 66.665 30.8229 66.92 31.5629 66.92ZM39.7052 60.305C40.5652 60.305 41.2652 60.56 41.8052 61.07C42.3552 61.58 42.6302 62.275 42.6302 63.155V68H41.3402V67.22C40.8502 67.87 40.1052 68.195 39.1052 68.195C38.3752 68.195 37.7552 67.985 37.2452 67.565C36.7352 67.145 36.4802 66.555 36.4802 65.795C36.4802 65.035 36.7352 64.445 37.2452 64.025C37.7552 63.605 38.3752 63.395 39.1052 63.395C40.0752 63.395 40.8202 63.685 41.3402 64.265V63.2C41.3402 62.64 41.1852 62.225 40.8752 61.955C40.5752 61.685 40.1852 61.55 39.7052 61.55C39.2452 61.55 38.8602 61.67 38.5502 61.91C38.2402 62.14 38.0852 62.47 38.0852 62.9H36.7952C36.7952 62.13 37.0702 61.505 37.6202 61.025C38.1702 60.545 38.8652 60.305 39.7052 60.305ZM39.4802 67.085C40.0302 67.085 40.4752 66.965 40.8152 66.725C41.1652 66.485 41.3402 66.175 41.3402 65.795C41.3402 65.395 41.1652 65.08 40.8152 64.85C40.4752 64.61 40.0302 64.49 39.4802 64.49C38.9202 64.49 38.4952 64.61 38.2052 64.85C37.9252 65.09 37.7852 65.405 37.7852 65.795C37.7852 66.185 37.9252 66.5 38.2052 66.74C38.4952 66.97 38.9202 67.085 39.4802 67.085ZM45.7345 61.625C46.2045 60.785 46.9595 60.365 47.9995 60.365V61.73C47.3695 61.7 46.8345 61.87 46.3945 62.24C45.9545 62.6 45.7345 63.18 45.7345 63.98V68H44.4295V60.5H45.7345V61.625ZM49.7829 64.85C49.8929 65.53 50.1779 66.06 50.6379 66.44C51.1079 66.82 51.6829 67.01 52.3629 67.01C52.8229 67.01 53.2329 66.91 53.5929 66.71C53.9629 66.5 54.2279 66.235 54.3879 65.915H55.7529C55.5329 66.605 55.1179 67.16 54.5079 67.58C53.8979 67.99 53.1779 68.195 52.3479 68.195C51.1879 68.195 50.2479 67.825 49.5279 67.085C48.8079 66.335 48.4479 65.39 48.4479 64.25C48.4479 63.12 48.8079 62.18 49.5279 61.43C50.2479 60.68 51.1829 60.305 52.3329 60.305C53.4329 60.305 54.3179 60.695 54.9879 61.475C55.6679 62.245 56.0079 63.175 56.0079 64.265C56.0079 64.455 55.9929 64.65 55.9629 64.85H49.7829ZM49.7829 63.695H54.6729C54.5829 62.995 54.3179 62.46 53.8779 62.09C53.4379 61.72 52.9179 61.535 52.3179 61.535C51.6279 61.535 51.0579 61.73 50.6079 62.12C50.1679 62.51 49.8929 63.035 49.7829 63.695ZM60.2423 60.305C61.1023 60.305 61.8023 60.56 62.3423 61.07C62.8923 61.58 63.1673 62.275 63.1673 63.155V68H61.8773V67.22C61.3873 67.87 60.6423 68.195 59.6423 68.195C58.9123 68.195 58.2923 67.985 57.7823 67.565C57.2723 67.145 57.0173 66.555 57.0173 65.795C57.0173 65.035 57.2723 64.445 57.7823 64.025C58.2923 63.605 58.9123 63.395 59.6423 63.395C60.6123 63.395 61.3573 63.685 61.8773 64.265V63.2C61.8773 62.64 61.7223 62.225 61.4123 61.955C61.1123 61.685 60.7223 61.55 60.2423 61.55C59.7823 61.55 59.3973 61.67 59.0873 61.91C58.7773 62.14 58.6223 62.47 58.6223 62.9H57.3323C57.3323 62.13 57.6073 61.505 58.1573 61.025C58.7073 60.545 59.4023 60.305 60.2423 60.305ZM60.0173 67.085C60.5673 67.085 61.0123 66.965 61.3523 66.725C61.7023 66.485 61.8773 66.175 61.8773 65.795C61.8773 65.395 61.7023 65.08 61.3523 64.85C61.0123 64.61 60.5673 64.49 60.0173 64.49C59.4573 64.49 59.0323 64.61 58.7423 64.85C58.4623 65.09 58.3223 65.405 58.3223 65.795C58.3223 66.185 58.4623 66.5 58.7423 66.74C59.0323 66.97 59.4573 67.085 60.0173 67.085Z" fill="white"/>
<circle cx="36" cy="26" r="26" fill="#4BCB36" fill-opacity="0.3"/>
<path d="M29.1066 26.268C29.9473 26.7707 30.3676 27.503 30.3676 28.465C30.3676 29.3057 30.0729 29.9687 29.4836 30.454C28.9029 30.9393 28.1099 31.182 27.1046 31.182C26.0906 31.182 25.2933 30.9393 24.7126 30.454C24.1319 29.9687 23.8416 29.3057 23.8416 28.465C23.8416 27.4943 24.2619 26.762 25.1026 26.268C24.4613 25.8087 24.1406 25.1803 24.1406 24.383C24.1406 23.5423 24.4223 22.888 24.9856 22.42C25.5576 21.952 26.2639 21.718 27.1046 21.718C27.9453 21.718 28.6473 21.952 29.2106 22.42C29.7739 22.888 30.0556 23.5423 30.0556 24.383C30.0556 25.189 29.7393 25.8173 29.1066 26.268ZM27.9496 23.694C27.7329 23.5033 27.4513 23.408 27.1046 23.408C26.7579 23.408 26.4763 23.5033 26.2596 23.694C26.0429 23.8847 25.9346 24.1447 25.9346 24.474C25.9346 24.8033 26.0429 25.0677 26.2596 25.267C26.4763 25.4577 26.7579 25.553 27.1046 25.553C27.4513 25.553 27.7329 25.4577 27.9496 25.267C28.1663 25.0677 28.2746 24.8033 28.2746 24.474C28.2746 24.1447 28.1663 23.8847 27.9496 23.694ZM26.0256 29.167C26.3029 29.3837 26.6626 29.492 27.1046 29.492C27.5466 29.492 27.9019 29.3837 28.1706 29.167C28.4479 28.9417 28.5866 28.6297 28.5866 28.231C28.5866 27.841 28.4479 27.5377 28.1706 27.321C27.9019 27.0957 27.5466 26.983 27.1046 26.983C26.6626 26.983 26.3029 27.0957 26.0256 27.321C25.7569 27.5377 25.6226 27.841 25.6226 28.231C25.6226 28.6297 25.7569 28.9417 26.0256 29.167ZM31.6203 31V29.141H33.4663V31H31.6203ZM34.4488 21.9H40.3248V23.421L37.2438 31H35.3458L38.3488 23.616H34.4488V21.9ZM44.4939 31.182C43.3586 31.182 42.4659 30.753 41.8159 29.895C41.1746 29.0283 40.8539 27.88 40.8539 26.45C40.8539 25.02 41.1746 23.876 41.8159 23.018C42.4659 22.1513 43.3586 21.718 44.4939 21.718C45.6379 21.718 46.5306 22.1513 47.1719 23.018C47.8133 23.876 48.1339 25.02 48.1339 26.45C48.1339 27.88 47.8133 29.0283 47.1719 29.895C46.5306 30.753 45.6379 31.182 44.4939 31.182ZM43.1159 28.673C43.4279 29.1757 43.8873 29.427 44.4939 29.427C45.1006 29.427 45.5599 29.1713 45.8719 28.66C46.1926 28.1487 46.3529 27.412 46.3529 26.45C46.3529 25.4793 46.1926 24.7383 45.8719 24.227C45.5599 23.7157 45.1006 23.46 44.4939 23.46C43.8873 23.46 43.4279 23.7157 43.1159 24.227C42.8039 24.7383 42.6479 25.4793 42.6479 26.45C42.6479 27.4207 42.8039 28.1617 43.1159 28.673Z" fill="white"/>
<path d="M36 0C40.7958 5.71895e-08 45.4982 1.32645 49.5871 3.83264C53.6759 6.33883 56.9919 9.9271 59.1684 14.2006C61.3448 18.4741 62.2969 23.2663 61.9193 28.0473C61.5416 32.8282 59.849 37.4115 57.0287 41.2903C54.2083 45.1692 50.3701 48.1924 45.9384 50.0256C41.5068 51.8587 36.6545 52.4305 31.9182 51.6776C27.1818 50.9247 22.746 48.8764 19.1013 45.7594C15.4566 42.6424 12.745 38.578 11.2665 34.0158L18.7919 31.5769C19.8206 34.751 21.7071 37.5788 24.2429 39.7474C26.7787 41.916 29.8649 43.3411 33.1601 43.8649C36.4554 44.3887 39.8313 43.991 42.9146 42.7155C45.9978 41.4401 48.6682 39.3368 50.6305 36.6381C52.5927 33.9394 53.7703 30.7506 54.0331 27.4244C54.2958 24.0981 53.6334 20.764 52.1192 17.7907C50.6049 14.8174 48.2978 12.3209 45.4531 10.5773C42.6083 8.83363 39.3366 7.91077 36 7.91077V0Z" fill="#4BCB36"/>
</svg>
