<svg width="26" height="27" viewBox="0 0 26 27" fill="none" xmlns="http://www.w3.org/2000/svg">
<g clip-path="url(#clip0_1_24048)">
<path d="M20.6331 14.6094L23.686 14.6094C24.1075 14.6094 24.4492 14.2677 24.4492 13.8461L24.4492 1.63469C24.4492 1.21321 24.1075 0.871448 23.686 0.871448L20.6331 0.871448C20.2116 0.871448 19.8699 1.21315 19.8699 1.63469L19.8699 13.8462C19.8699 14.2677 20.2115 14.6094 20.6331 14.6094Z" fill="white"/>
<path d="M1.56619 12.5849C1.70081 13.7689 2.80678 14.608 3.99836 14.608L9.94864 14.608C9.44296 15.5135 9.17153 18.0746 9.18357 19.1207C9.20353 20.8525 10.6376 22.2402 12.3694 22.2402L12.9992 22.2402C13.4211 22.2402 13.7625 21.8989 13.7625 21.477C13.7625 19.7121 14.4497 16.5265 15.7458 15.2304C16.6181 14.358 17.3639 14.0419 18.3418 13.5532L18.3418 2.10109C16.8446 1.60206 14.9437 0.870052 12.0463 0.870052L7.05365 0.870051C5.4086 0.870051 4.12739 2.39364 4.76485 4.0034C3.79366 4.26797 3.07744 5.15867 3.07744 6.21258C3.07744 6.51001 3.13482 6.79469 3.23842 7.05631C1.60179 7.50222 0.999374 9.52306 2.1353 10.7919C1.71798 11.2581 1.48784 11.8959 1.56619 12.5849Z" fill="white"/>
</g>
<defs>
<clipPath id="clip0_1_24048">
<rect width="26" height="26" fill="white" transform="translate(26 26.8711) rotate(-180)"/>
</clipPath>
</defs>
</svg>
