<svg width="27" height="26" viewBox="0 0 27 26" fill="none" xmlns="http://www.w3.org/2000/svg">
<g clip-path="url(#clip0_1_24057)">
<path d="M6.23803 12.2617H3.18512C2.76363 12.2617 2.42188 12.6034 2.42188 13.025V25.2364C2.42188 25.6579 2.76358 25.9996 3.18512 25.9996H6.23798C6.65946 25.9996 7.00122 25.6579 7.00122 25.2364V13.0249C7.00122 12.6034 6.65956 12.2617 6.23803 12.2617Z" fill="white"/>
<path d="M25.3049 14.2862C25.1703 13.1022 24.0643 12.2631 22.8727 12.2631H16.9225C17.4281 11.3576 17.6996 8.79654 17.6875 7.75035C17.6676 6.01861 16.2335 4.63086 14.5017 4.63086H13.8719C13.45 4.63086 13.1086 4.97221 13.1086 5.3941C13.1086 7.159 12.4214 10.3446 11.1253 11.6407C10.253 12.5131 9.50719 12.8292 8.5293 13.3179V24.77C10.0265 25.269 11.9274 26.001 14.8248 26.001H19.8174C21.4625 26.001 22.7437 24.4775 22.1062 22.8677C23.0774 22.6031 23.7937 21.7124 23.7937 20.6585C23.7937 20.3611 23.7363 20.0764 23.6327 19.8148C25.2693 19.3689 25.8717 17.348 24.7358 16.0792C25.1531 15.6129 25.3833 14.9752 25.3049 14.2862Z" fill="white"/>
</g>
<defs>
<clipPath id="clip0_1_24057">
<rect width="26" height="26" fill="white" transform="translate(0.871094)"/>
</clipPath>
</defs>
</svg>
